<?xml version="1.0" encoding="UTF-8" standalone="no"?>
<!DOCTYPE svg PUBLIC "-//W3C//DTD SVG 1.1//EN" "http://www.w3.org/Graphics/SVG/1.1/DTD/svg11.dtd">
<svg width="100%" height="100%" viewBox="0 0 747 1024" version="1.1" xmlns="http://www.w3.org/2000/svg" xmlns:xlink="http://www.w3.org/1999/xlink" xml:space="preserve" xmlns:serif="http://www.serif.com/" style="fill-rule:evenodd;clip-rule:evenodd;stroke-linejoin:round;stroke-miterlimit:2;">
    <g id="Final" transform="matrix(1,0,0,1,-155,-510)">
        <g id="Back-flame" serif:id="Back flame" transform="matrix(2.952301,-3.553665,3.789173,3.147956,-1562.387579,642.26694)">
            <path d="M207.645,329.519C208.438,325.492 212.948,302.59 228.943,282.844C245.883,261.932 258.463,262.079 261.554,262.115C264.192,262.146 263.146,263.449 261.897,265.713C257.708,273.305 261.523,283.609 267.862,288.03C276.974,294.385 284.705,288.303 285.677,287.792C289.741,285.657 301.761,304.512 304.223,309.644C336.46,376.818 273.616,433.487 229.121,394.919C200.98,370.526 207.349,332.733 207.645,329.519Z" style="fill:rgb(254,162,19);"/>
        </g>
        <g id="Front-Flame" serif:id="Front Flame" transform="matrix(2.003872,-3.43398,3.695457,2.156455,-1247.396932,975.042091)">
            <path d="M207.645,329.519C208.438,325.492 212.948,302.59 228.943,282.844C245.883,261.932 258.463,262.079 261.554,262.115C264.192,262.146 263.146,263.449 261.897,265.713C257.708,273.305 261.523,283.609 267.862,288.03C276.974,294.385 284.705,288.303 285.677,287.792C289.741,285.657 301.761,304.512 304.223,309.644C336.46,376.818 273.616,433.487 229.121,394.919C200.98,370.526 207.349,332.733 207.645,329.519Z" style="fill:rgb(254,83,39);"/>
        </g>
        <g id="Outline" transform="matrix(1,0,0,1,228.208296,621.249999)">
            <path d="M290.79,26.78C310.801,6.311 310.527,6.015 312.57,4.597C316.46,1.896 316.894,2.444 385.5,2.405C416.651,2.387 416.598,3.093 419.296,2.913C423.09,2.66 425.515,14.95 427.239,22.579C437.109,66.255 436.763,67.622 438.448,67.179C454.495,62.967 454.866,67.687 493.56,64.917C495.541,64.817 497.522,64.718 499.503,64.619C507.01,64.524 506.94,64.507 514.497,64.58C517.535,65.286 517.48,65.05 520.522,65.04C524.131,65.36 547.35,67.419 564.703,75.007C571.598,78.023 586.744,82.173 612.214,103.871C613.254,104.819 613.189,104.76 614.278,105.74C636.033,125.423 648.103,147.493 650.343,151.587C651.357,153.128 651.102,153.203 652.141,154.695C655.498,160.976 655.034,162.028 658.026,165.735C658.182,167.33 658.172,167.294 659.085,168.696C666.09,185.12 668.991,194.167 669.716,196.43C673.607,208.564 663.73,212.14 656.66,201.379C638.642,173.954 596.134,152.851 587.85,153.832C587.85,153.832 594.548,189.914 588.267,199.606C592.082,204.794 593.244,207.05 597.277,213.646C626.808,261.948 625.656,300.717 624.407,321.494C624.226,322.509 624.046,323.524 623.865,324.539C622.183,336.221 618.457,377.922 580.564,408.574C577.938,410.698 577.983,411.173 577.411,436.497C577.019,438.366 577.005,438.352 576.988,438.516C576.825,440.089 577.115,440.005 576.96,441.504C576.13,503.315 547.57,585.582 529.306,616.4C520.192,631.778 512.498,651.982 503.849,636.37L503.614,634.489C503.329,632.714 503.539,632.68 502.524,631.118C502.249,631.358 501.708,630.958 501.433,631.198C501.351,631.27 501.014,631.281 500.387,657.497C500.008,660.519 499.987,660.424 499.984,663.517C499.69,669.515 499.451,675.457 499.409,676.496C498.943,679.028 498.972,678.961 498.969,681.504C498.918,682.383 499.017,682.33 498.427,692.497C497.982,694.383 497.971,694.368 497.946,694.533C497.799,695.536 498.08,695.493 497.933,696.494C497.911,698.578 497.899,698.56 496.389,722.494C496.231,724.471 495.974,726.238 495.927,726.562C495.668,729.535 494.015,748.52 490.26,763.423C487.815,773.131 480.775,773.29 438.575,788.693C423.432,794.22 422.277,793.935 422.594,796.489C423.334,802.45 423,802.491 417.275,822.42C415.968,826.97 418.251,826.379 422.418,830.587C423.131,831.306 441.284,847.837 435.854,865.593C427.031,894.449 388.184,900.019 368.451,902.2L365.496,902.419C358.08,902.972 358.128,902.975 357.487,903.017C355.934,903.117 355.997,902.968 354.458,903.068C352.205,902.879 335.172,902.964 333.495,902.972C331.654,902.877 331.689,902.567 310.504,901.442L307.557,901.199C302.666,900.282 292.699,899.081 291.404,898.925C283.799,898.01 263.845,893.802 263.439,893.739C246.388,891.082 195.359,874.35 179.667,866.156C178.304,865.444 165.308,858.658 162.52,857.465C159.668,856.244 137.934,843.958 127.476,833.524C125.057,830.922 125.048,831.018 122.461,828.538C114.57,820.086 109.334,813.392 106.958,799.39C106.889,796.352 106.947,796.441 107.105,793.432C109.426,781.443 111.76,774.155 130.591,761.655C132.13,760.64 132.201,760.891 133.689,759.856C147.681,752.795 160.104,750.01 162.494,749.474C163.727,749.198 163.91,749.058 167.015,738.341C172.879,718.103 170.826,709.721 202.594,705.955L207.504,705.581C219.088,705.179 220.839,705.159 221.458,704.466C222.123,703.721 223.054,698.181 223.54,693.503C224.211,690.976 224.042,691.012 223.82,688.418C221.881,684.838 219.541,684.905 206.524,672.472C186.71,653.547 188.013,652.479 171.349,630.608C160.07,615.805 141.528,581.392 133.638,561.444C121.697,531.255 121.066,525.167 116.214,504.574C103.429,450.31 109.389,445.47 102.453,445.083C100.468,445.194 98.483,445.306 96.497,445.417C84.058,445.853 84.061,446.333 79.488,445.583C77.59,445.271 74.304,444.731 63.993,427.189C48.131,400.203 12.418,340.782 3.781,247.453L3.565,244.497C3.136,233.976 2.944,234.04 3.032,223.502C3.121,219.451 3.165,219.529 3.021,215.489C3.089,213.168 3.449,200.825 4.552,186.503L4.795,183.557C5.377,180.568 6.249,173.346 6.334,172.484C7.73,158.327 12.307,159.65 26.496,160.579C29.043,161.196 29.025,160.716 31.561,161.076C31.878,161.088 34.849,161.199 35.489,160.492C36.152,159.76 35.738,159.641 38.034,148.399C38.104,148.057 38.22,142.442 41.657,139.678C45.498,136.587 46.64,136.162 101.412,154.738C114.46,159.163 115.095,160.501 117.878,157.803C118.813,156.756 118.765,156.812 119.718,155.692C122.291,152.194 165.401,101.063 220.588,83.748C234.836,79.278 236.296,82.266 243.478,75.478C250.187,69.347 251.273,67.587 251.779,66.768C251.934,66.604 253.708,64.727 253.719,64.715C268.03,49.96 268.151,50.23 282.475,35.475C289.17,29.435 290.289,27.601 290.79,26.78Z" style="fill-opacity:1;"/>
        </g>
        <g id="Right-Eye" serif:id="Right Eye" transform="matrix(0.937983,0,0,0.937983,324.06975,30.1884)">
            <g id="Right-eye-contour" serif:id="Right eye contour" transform="matrix(1.739275,-0.172972,0.161214,1.621046,-467.347534,-520.302615)">
                <ellipse cx="446.56" cy="952.032" rx="58.191" ry="85.845"/>
            </g>
            <g id="Left-eye-white" serif:id="Left eye white" transform="matrix(0.79392,-0.078956,0.102808,1.033759,-3.241513,5.356978)">
                <ellipse cx="464.651" cy="945.164" rx="111.78" ry="118.572" style="fill:white;"/>
            </g>
            <g id="Retina-Contour" serif:id="Retina Contour" transform="matrix(0.743025,-0.056018,0.077345,1.025909,57.926012,-2.194361)">
                <ellipse cx="482.013" cy="951.247" rx="99.788" ry="107.589"/>
            </g>
            <g id="Retina-Body" serif:id="Retina Body" transform="matrix(0.729565,-0.055003,0.079505,1.054559,63.780098,-30.642692)">
                <ellipse cx="482.013" cy="951.247" rx="77.943" ry="89.577" style="fill:rgb(254,83,39);"/>
            </g>
            <g id="Left-eye-flame" serif:id="Left eye flame" transform="matrix(0.758688,0,0,1.012942,300.667354,606.642)">
                <path d="M207.645,329.519C208.438,325.492 212.948,302.59 228.943,282.844C245.883,261.932 258.463,262.079 261.554,262.115C264.192,262.146 263.146,263.449 261.897,265.713C257.708,273.305 261.523,283.609 267.862,288.03C276.974,294.385 284.705,288.303 285.677,287.792C289.741,285.657 301.761,304.512 304.223,309.644C336.46,376.818 273.616,433.487 229.121,394.919C200.98,370.526 207.349,332.733 207.645,329.519Z" style="fill:rgb(254,162,19);"/>
            </g>
            <g id="Pupil" transform="matrix(0.722408,-0.106277,0.136555,0.928223,22.875445,111.999397)">
                <ellipse cx="482.013" cy="951.247" rx="22.738" ry="27.585"/>
            </g>
        </g>
        <g id="Outline-Left" serif:id="Outline Left" transform="matrix(1,0,0,1,228.208296,621.249999)">
            <path d="M290.79,26.78C310.801,6.311 310.527,6.015 312.57,4.597C316.46,1.896 316.894,2.444 385.5,2.405C416.651,2.387 416.598,3.093 419.296,2.913C423.09,2.66 425.515,14.95 427.239,22.579C437.109,66.255 438.072,65.478 438.448,67.179C449.161,115.633 530.164,481.524 529.983,482.539C528.301,494.221 512.498,651.982 503.849,636.37L503.614,634.489C503.329,632.714 503.539,632.68 502.524,631.118C502.249,631.358 501.708,630.958 501.433,631.198C501.351,631.27 501.014,631.281 500.387,657.497C500.008,660.519 499.987,660.424 499.984,663.517C499.69,669.515 499.451,675.457 499.409,676.496C498.943,679.028 498.972,678.961 498.969,681.504C498.918,682.383 499.017,682.33 498.427,692.497C497.982,694.383 497.971,694.368 497.946,694.533C497.799,695.536 498.08,695.493 497.933,696.494C497.911,698.578 497.899,698.56 496.389,722.494C496.231,724.471 495.974,726.238 495.927,726.562C495.668,729.535 494.015,748.52 490.26,763.423C487.815,773.131 480.775,773.29 438.575,788.693C423.432,794.22 422.277,793.935 422.594,796.489C423.334,802.45 423,802.491 417.275,822.42C415.968,826.97 418.251,826.379 422.418,830.587C423.131,831.306 441.284,847.837 435.854,865.593C427.031,894.449 388.184,900.019 368.451,902.2L365.496,902.419C358.08,902.972 358.128,902.975 357.487,903.017C355.934,903.117 355.997,902.968 354.458,903.068C352.205,902.879 335.172,902.964 333.495,902.972C331.654,902.877 331.689,902.567 310.504,901.442L307.557,901.199C302.666,900.282 292.699,899.081 291.404,898.925C283.799,898.01 263.845,893.802 263.439,893.739C246.388,891.082 195.359,874.35 179.667,866.156C178.304,865.444 165.308,858.658 162.52,857.465C159.668,856.244 137.934,843.958 127.476,833.524C125.057,830.922 125.048,831.018 122.461,828.538C114.57,820.086 109.334,813.392 106.958,799.39C106.889,796.352 106.947,796.441 107.105,793.432C109.426,781.443 111.76,774.155 130.591,761.655C132.13,760.64 132.201,760.891 133.689,759.856C147.681,752.795 160.104,750.01 162.494,749.474C163.727,749.198 163.91,749.058 167.015,738.341C172.879,718.103 170.826,709.721 202.594,705.955L207.504,705.581C219.088,705.179 220.839,705.159 221.458,704.466C222.123,703.721 223.054,698.181 223.54,693.503C224.211,690.976 224.042,691.012 223.82,688.418C221.881,684.838 219.541,684.905 206.524,672.472C186.71,653.547 188.013,652.479 171.349,630.608C160.07,615.805 141.528,581.392 133.638,561.444C121.697,531.255 121.066,525.167 116.214,504.574C103.429,450.31 109.389,445.47 102.453,445.083C100.468,445.194 98.483,445.306 96.497,445.417C84.058,445.853 84.061,446.333 79.488,445.583C77.59,445.271 74.304,444.731 63.993,427.189C48.131,400.203 12.418,340.782 3.781,247.453L3.565,244.497C3.136,233.976 2.944,234.04 3.032,223.502C3.121,219.451 3.165,219.529 3.021,215.489C3.089,213.168 3.449,200.825 4.552,186.503L4.795,183.557C5.377,180.568 6.249,173.346 6.334,172.484C7.73,158.327 12.307,159.65 26.496,160.579C29.043,161.196 29.025,160.716 31.561,161.076C31.878,161.088 34.849,161.199 35.489,160.492C36.152,159.76 35.738,159.641 38.034,148.399C38.104,148.057 38.22,142.442 41.657,139.678C45.498,136.587 46.64,136.162 101.412,154.738C114.46,159.163 115.095,160.501 117.878,157.803C118.813,156.756 118.765,156.812 119.718,155.692C122.291,152.194 165.401,101.063 220.588,83.748C234.836,79.278 236.296,82.266 243.478,75.478C250.187,69.347 251.273,67.587 251.779,66.768C251.934,66.604 253.708,64.727 253.719,64.715C268.03,49.96 268.151,50.23 282.475,35.475C289.17,29.435 290.289,27.601 290.79,26.78Z" style="fill-opacity:1;"/>
        </g>
        <g id="Neck" transform="matrix(1,0,0,1,228.208296,621.249999)">
            <path d="M259.547,801.211C356.434,839.807 386.044,825.146 399.532,825.193C401.185,825.199 401.313,826.438 395.08,845.368C384.539,877.379 302.782,858.27 250.431,836.609C252.131,831.277 259.017,806.873 259.547,801.211Z" style="fill:rgb(167,19,26);"/>
            <path d="M275.528,776.429C281.937,778.609 301.095,786.649 322.485,784.371C344.981,781.975 345.337,769.085 349.406,771.657C386.902,795.357 386.299,797.938 406.572,800.234C408.889,800.496 408.245,813.047 375.497,812.66C328.601,812.106 294.112,798.943 256.562,783.362C211.053,764.479 168.697,729.456 191.529,722.592C197.323,720.85 218.09,719.028 218.67,721.452C220.463,728.943 208.25,746.183 264.327,771.891C270.297,774.628 272.26,775.129 275.528,776.429Z" style="fill:rgb(167,19,26);"/>
            <path d="M178.645,751.569L179.331,751.089C179.626,751.276 180.013,750.524 180.308,750.711C182.069,751.829 179.513,754.329 198.777,769.116C202.099,771.666 222.644,786.19 259.547,801.211C259.017,806.873 252.131,831.277 250.431,836.609C230.884,828.764 167.827,798.32 171.887,776.559C173.233,769.34 176.961,757.692 178.645,751.569Z" style="fill:rgb(136,13,16);"/>
        </g>
        <g id="Lower-face" serif:id="Lower face">
            <g transform="matrix(1,0,0,1,228.208296,621.249999)">
                <path d="M485.867,613.076C486.303,642.708 486.606,670.986 476.798,757.574C476.423,760.512 475.015,759.708 442.585,771.721C405.916,785.305 405.861,785.833 402.585,785.031C394.989,783.173 390.77,782.141 319.756,733.133C302.654,721.33 301.686,720.035 300.528,718.486C302.123,713.086 300.928,661.84 300.849,658.395C305.272,650.871 301.354,643.414 312.788,640.998C332.375,636.858 451.528,613.937 477.423,609.168C487.17,607.373 485.252,607.585 485.867,613.076Z" style="fill:rgb(254,45,51);"/>
            </g>
            <g transform="matrix(1,0,0,1,228.208296,621.249999)">
                <path d="M480.858,608.448C483.338,607.995 485.715,606.875 485.871,610.474C486.898,634.098 484.813,667.081 484.586,671.96C479.723,675.42 446.616,706.842 407.423,714.061C381.528,718.83 367.337,717.542 325.188,690.998C305.374,678.52 306.682,675.703 301.259,675.427C301.202,668.405 301.412,668.465 301.352,661.477C301.352,661.477 300.187,659.368 300.085,659.184C306.261,650.628 300.168,643.15 312.586,640.916C333.057,637.232 332.905,636.384 353.413,632.927C355.107,665.2 363.183,703.254 422.357,686.025C478.537,669.668 476.546,617.042 480.858,608.448Z" style="fill:rgb(178,21,29);"/>
            </g>
            <g transform="matrix(1,0,-0,1,228.208296,621.249999)">
                <path d="M301.278,657.382C301.379,657.565 301.352,661.477 301.352,661.477C301.412,668.465 301.202,668.405 301.259,675.427C301.338,678.872 302.123,713.086 300.528,718.486C296.313,717.614 269.281,696.801 264.097,692.999C259.822,689.864 263.919,689.201 272.379,682.346C286.413,670.975 287.566,669.24 301.278,657.382Z" style="fill:rgb(137,10,15);"/>
            </g>
            <g transform="matrix(1,0,0,1,228.208296,621.249999)">
                <path d="M303.084,558.505C303.084,558.281 302.218,549.678 304.624,548.815C307.212,547.886 318.336,544.855 328.583,541.773C358.355,532.816 358.648,534.376 389.545,530.974C452.798,524.01 489.05,518.623 490.033,519.868C490.777,520.811 497.43,581.203 498.018,586.543C498.501,590.927 496.579,590.601 483.428,593.09C469.198,595.783 318.448,624.311 305.492,626.444C302.657,626.911 303.228,624.967 303.231,599.504C303.232,584.569 303.169,581.991 303.084,558.505Z" style="fill:rgb(254,254,254);"/>
            </g>
            <g transform="matrix(1,0,0,1,228.208296,621.249999)">
                <path d="M516.281,610.27C515.933,610.27 515.848,610.961 515.5,610.962C514.798,610.962 514.771,609.558 514.768,609.422C514.445,592.984 505.148,517.665 505.214,514.501C505.276,511.486 520.71,503.451 529.22,497.138C536.014,492.098 532.096,485.426 519.451,429.509C518.399,424.857 521.648,427.495 528.481,427.878C550.032,429.084 563.27,418.592 563.197,422.528C561.333,523.424 526.171,588.607 516.281,610.27Z" style="fill:rgb(254,45,51);"/>
            </g>
            <g id="Left-cheek" serif:id="Left cheek" transform="matrix(1,0,0,1,228.208296,621.249999)">
                <path d="M304.598,438.913C341.257,430.922 341.224,430.885 341.371,430.958C342.296,431.413 342.137,438.807 342.122,439.492C340.966,493.147 343.107,518.654 342.709,520.54C341.807,524.823 289.249,534.236 288.203,538.421C287.959,539.396 288.1,607.75 288.32,629.501C288.449,642.237 289.221,643.056 283.78,647.813C274.151,656.232 270.458,661.901 267.965,658.178C223.147,591.266 209.654,532.502 203.945,501.422C200.909,484.893 198.032,456.241 198.03,455.46C198.016,450.977 202.69,457.093 224.495,458.574C257.62,460.823 285.617,445.858 304.598,438.913Z" style="fill:rgb(254,45,51);"/>
            </g>
            <g transform="matrix(1,0,0,1,228.208296,621.249999)">
                <path d="M225.709,616.403C227.981,620.552 246.21,653.836 255.574,667.448C258.508,671.712 256.171,672.15 249.358,677.317C246.642,679.377 243.414,674.819 236.705,668.292C231.441,663.17 174.298,608.419 155.489,502.502C152.582,486.135 150.07,466.421 150.293,465.453C150.812,463.206 182.094,457.646 183.152,458.818C184.772,460.612 183.098,485.526 197.45,542.513C205.151,573.093 222.995,610.685 225.709,616.403Z" style="fill:rgb(167,19,26);"/>
            </g>
            <g transform="matrix(1,0,0,1,228.208296,621.249999)">
                <path d="M166.307,593.958C164.975,592.241 144.859,556.904 133.827,514.414C123.859,476.023 119.714,443.234 120.924,441.941C121.7,441.111 133.079,437.078 152.693,426.848C155.88,425.186 160.04,431.76 170.757,439.132C174.007,441.368 174.692,441.034 174.597,442.529C174.427,445.19 136.266,447.285 133.42,455.465C130.907,462.687 137.088,502.009 143.145,525.584C153.667,566.533 161.555,580.874 167.907,593.484L166.307,593.958Z" style="fill:rgb(136,13,16);"/>
            </g>
        </g>
        <g id="Left-Eye" serif:id="Left Eye">
            <g id="Right-eye-contour1" serif:id="Right eye contour" transform="matrix(2.190744,0,0,1.568108,-513.648263,-547.724293)">
                <ellipse cx="446.56" cy="952.032" rx="58.191" ry="85.845"/>
            </g>
            <ellipse id="Left-eye-white1" serif:id="Left eye white" cx="464.651" cy="945.164" rx="111.78" ry="118.572" style="fill:white;"/>
            <g id="Retina-Contour1" serif:id="Retina Contour" transform="matrix(0.975362,0,0,0.990482,9.417314,10.07769)">
                <ellipse cx="482.013" cy="951.247" rx="99.788" ry="107.589"/>
            </g>
            <g id="Retina-Body1" serif:id="Retina Body" transform="matrix(1.045112,0,0,1.020217,-23.994762,-17.420307)">
                <ellipse cx="482.013" cy="951.247" rx="77.943" ry="89.577" style="fill:rgb(254,83,39);"/>
            </g>
            <g id="Left-eye-flame1" serif:id="Left eye flame" transform="matrix(1,0,0,1,228.208296,621.249999)">
                <path d="M207.645,329.519C208.438,325.492 212.948,302.59 228.943,282.844C245.883,261.932 258.463,262.079 261.554,262.115C264.192,262.146 263.146,263.449 261.897,265.713C257.708,273.305 261.523,283.609 267.862,288.03C276.974,294.385 284.705,288.303 285.677,287.792C289.741,285.657 301.761,304.512 304.223,309.644C336.46,376.818 273.616,433.487 229.121,394.919C200.98,370.526 207.349,332.733 207.645,329.519Z" style="fill:rgb(254,162,19);"/>
            </g>
            <ellipse id="Pupil1" serif:id="Pupil" cx="482.013" cy="951.247" rx="22.738" ry="27.585"/>
        </g>
        <g id="Face-Right" serif:id="Face Right" transform="matrix(1,0,0,1,228.208296,621.249999)">
            <path d="M575.017,152.544C578.918,176.398 578.892,181.857 578.551,189.527C563.984,179.943 548.11,162.124 513.536,166.849C495.991,169.247 474.62,182.525 469.923,186.94C466.47,190.186 466.358,192.136 464.859,190.219C464.762,190.094 460.907,172.733 460.888,172.428C460.779,170.679 462.408,169.889 462.636,169.778C481.019,160.867 492.044,155.799 513.617,150.991C538.236,145.505 573.097,147.011 574.73,151.448C574.86,151.802 574.887,152.19 575.017,152.544Z" style="fill:rgb(136,13,16);"/>
        </g>
        <g id="Face-Right1" serif:id="Face Right">
            <g id="Left-over-eye" serif:id="Left over eye" transform="matrix(1,0,0,1,228.208296,621.249999)">
                <path d="M60.407,157.769C63.95,158.903 101.8,171.017 104.544,172.437C107.29,173.858 94.38,185.881 77.773,217.646C70.76,231.062 61.794,246.375 72.567,248.157C81.056,249.562 88.056,237.421 121.24,215.099C203.661,159.655 247.038,171.743 315.499,171.725C329.854,171.721 329.778,171.989 341.542,170.783C344.114,170.519 345.164,183.985 352.514,217.497C369.146,294.171 385.777,370.845 402.409,447.52C411.412,488.84 411.411,488.829 411.818,492.481C412.065,494.691 408.055,495.726 389.724,503.196C387.542,504.085 381.544,506.938 380.273,507.502C374.504,510.059 364.988,514.778 362.307,504.56C362.024,503.48 361.169,470.48 361.092,467.515C360.495,444.447 359.626,444.53 359.946,421.513C360.033,415.268 361.563,414.084 356.294,410.859C350.916,407.568 317.795,423.304 327.209,414.253C338.182,403.702 341.426,393.95 345.439,389.448C346.299,388.483 356.052,368.426 356.138,367.46C357.389,353.396 375.848,310.927 348.378,256.565C312.352,185.27 216.092,167.999 158.533,218.537C97.799,271.862 95.514,352.029 139.913,411.194C141.953,413.913 140.222,414.259 136.291,416.045C119.343,423.743 118.921,422.91 118.52,422.478C112.649,416.161 45.769,328.525 47.163,214.498C47.406,194.567 51.527,155.816 54.484,155.805C54.806,155.804 59.936,157.604 60.407,157.769Z" style="fill:rgb(167,19,26);"/>
            </g>
            <g id="Left-Ear" serif:id="Left Ear" transform="matrix(1,0,0,1,228.208296,621.249999)">
                <path d="M44.195,308.58C46.463,316.539 59.02,360.596 85.938,403.223C87.595,405.849 103.349,428.313 103.296,428.539C102.819,430.594 86.334,431.311 84.746,429.318C80.038,423.408 12.356,325.012 19.612,203.507C20.443,189.596 20.827,177.336 23.463,177.165C32.881,176.551 32.806,178.721 32.779,179.489C32.171,197.098 24.47,235.993 44.195,308.58Z" style="fill:rgb(136,13,16);"/>
            </g>
        </g>
        <g id="Nose">
            <g id="Nose-Brodge" serif:id="Nose Brodge" transform="matrix(1,0,0,1,228.208296,621.249999)">
                <path d="M346.442,112.733C345.802,102.528 327.67,21.508 327.485,20.501C327.196,18.927 328.364,18.658 328.532,18.62C330.376,18.196 366.222,18.116 369.5,18.108C405.601,18.027 408.729,17.005 409.665,19.433C410.54,21.7 514.641,479.518 513.834,481.658C513.498,482.548 508.889,483.003 508.447,483.047C506.259,483.263 429.636,489.683 429.5,489.69C427.015,489.818 426.775,485.409 426.385,483.526C401.34,362.546 346.305,114.216 346.442,112.733Z" style="fill:rgb(254,45,51);"/>
            </g>
            <g id="Nose-Top" serif:id="Nose Top" transform="matrix(1,0,0,1,228.208296,621.249999)">
                <path d="M296.501,75.091C294.26,75.16 273.576,75.8 268.473,75.567C265.78,75.444 270.938,71.139 271.534,70.533C272.555,69.494 309.95,30.196 310.105,30.013C313.426,26.089 312.589,31.818 320.247,66.552C321.468,72.089 324.206,75.054 318.498,75.057C307.44,75.06 307.501,75.018 296.501,75.091Z" style="fill:rgb(167,19,26);"/>
            </g>
        </g>
    </g>
</svg>
